<?xml version="1.0" encoding="UTF-8"?>
<svg width="71px" height="61px" viewBox="0 0 71 61" version="1.1" xmlns="http://www.w3.org/2000/svg" xmlns:xlink="http://www.w3.org/1999/xlink">
    <!-- Generator: Sketch 46.2 (44496) - http://www.bohemiancoding.com/sketch -->
    <title>Group 3 Copy</title>
    <desc>Created with Sketch.</desc>
    <defs></defs>
    <g id="Page-1" stroke="none" stroke-width="1" fill="none" fill-rule="evenodd">
        <g id="Desktop" transform="translate(-1007.000000, -1370.000000)">
            <g id="Group-5-Copy-2" transform="translate(763.000000, 1326.000000)">
                <g id="Group-3-Copy" transform="translate(245.000000, 45.000000)">
                    <g id="Group-2" transform="translate(8.571429, 21.333333)" fill-rule="nonzero" fill="#8984FA">
                        <path d="M0.164285714,9.73570954 L4.07585034,15.6030565 C4.26556122,15.8866449 4.57457483,16.0391959 4.89141156,16.0391959 C5.07916667,16.0391959 5.26692177,15.9863898 5.43120748,15.8729544 C5.88103741,15.5737197 6.00229592,14.9674272 5.70306122,14.5175973 L2.15331633,9.19200205 L5.70306122,3.86640682 C6.00229592,3.41657688 5.88103741,2.81028437 5.43120748,2.51104967 C4.97942177,2.21181498 4.37312925,2.33307348 4.07585034,2.78290341 L0.164285714,8.65025035 C-0.0547619048,8.97882178 -0.0547619048,9.40713811 0.164285714,9.73570954 Z" id="Shape"></path>
                        <path d="M8.56446701,17.575509 C8.64465409,17.5950668 8.72484116,17.6048457 8.80307245,17.6048457 C9.24312347,17.6048457 9.64014728,17.3095226 9.74967109,16.8636042 L13.6612357,1.21734575 C13.7922731,0.693196086 13.4734806,0.163179079 12.949331,0.0321416641 C12.4212697,-0.10671888 11.8932085,0.217940984 11.7641269,0.744046426 L7.85256225,16.3903049 C7.72152483,16.9144546 8.04031735,17.4444716 8.56446701,17.575509 Z" id="Shape"></path>
                        <path d="M16.0822231,15.8729544 C16.2504204,15.984434 16.4381755,16.0372401 16.6239748,16.0372401 C16.9388558,16.0372401 17.2498252,15.8846891 17.4375803,15.6030565 L21.3491449,9.73570954 C21.5681925,9.40713811 21.5681925,8.97882178 21.3491449,8.65025035 L17.4375803,2.78290341 C17.1383456,2.33307348 16.5320531,2.21181498 16.0822231,2.51104967 C15.6323932,2.81028437 15.5111347,3.41657688 15.8103694,3.86640682 L19.3601143,9.19200205 L15.8103694,14.5175973 C15.5111347,14.9674272 15.6323932,15.5737197 16.0822231,15.8729544 Z" id="Shape"></path>
                    </g>
                    <path d="M0,16 L60,16 L60,14 L60,14 C60,10.6862915 57.3137085,8 54,8 L6,8 L6,8 C2.6862915,8 -4.05812251e-16,10.6862915 0,14 L0,16 Z" id="Path-3" fill="#F2F2F2"></path>
                    <path d="M45.5765873,53.5677656 L5.49603175,53.5677656 C2.64583333,53.5677656 0.337301587,51.0353646 0.337301587,47.9150849 L0.337301587,13.999001 C0.337301587,10.8787213 2.64583333,8.34632035 5.49603175,8.34632035 L54.5039683,8.34632035 C57.3515873,8.34632035 59.6626984,10.8787213 59.6626984,13.999001 L59.6626984,47.9150849 C59.6626984,51.0353646 57.3515873,53.5677656 54.5039683,53.5677656 L51.1321429,53.5677656" id="Shape" stroke="#2E2E36" stroke-width="2" stroke-linecap="round" stroke-linejoin="round"></path>
                    <circle id="Oval-3" fill="#FF1A55" cx="6.5" cy="12.5" r="1.5"></circle>
                    <circle id="Oval-3-Copy" fill="#9999A7" cx="10.5" cy="12.5" r="1.5"></circle>
                    <circle id="Oval-3-Copy-2" fill="#9999A7" cx="14.5" cy="12.5" r="1.5"></circle>
                    <polygon id="Shape" stroke="#2E2E36" stroke-width="2" fill="#F2F2F2" stroke-linejoin="round" transform="translate(43.003221, 46.241316) rotate(10.000000) translate(-43.003221, -46.241316) " points="45.5475873 46.241316 50.0002288 41.7886745 32.1896629 35.4277581 38.5505793 53.238324 43.0032207 48.7856825 51.2724121 57.0548739 53.8167786 54.5105073"></polygon>
                    <path d="M0.952380952,16.6190476 L59.047619,16.6190476" id="Path-2" stroke="#2E2E36" stroke-width="2"></path>
                    <path d="M63.8692396,11.7155767 L68.2042217,8.82558861" id="Path-5" stroke="#2E2E36" stroke-width="2" stroke-linecap="round" transform="translate(66.036731, 10.270583) rotate(18.000000) translate(-66.036731, -10.270583) "></path>
                    <path d="M60.368459,4.95785247 L63.2363412,0.862092246" id="Path-4" stroke="#2E2E36" stroke-width="2" stroke-linecap="round"></path>
                </g>
            </g>
        </g>
    </g>
</svg>