<?xml version="1.0" encoding="UTF-8"?>
<svg width="64px" height="69px" viewBox="0 0 64 69" version="1.1" xmlns="http://www.w3.org/2000/svg" xmlns:xlink="http://www.w3.org/1999/xlink">
    <!-- Generator: Sketch 46.2 (44496) - http://www.bohemiancoding.com/sketch -->
    <title>cursor-touch-1 copy</title>
    <desc>Created with Sketch.</desc>
    <defs></defs>
    <g id="Page-1" stroke="none" stroke-width="1" fill="none" fill-rule="evenodd" stroke-linecap="round">
        <g id="Desktop" transform="translate(-1010.000000, -706.000000)">
            <g id="Group-5" transform="translate(763.000000, 666.000000)">
                <g id="cursor-touch-1-copy" transform="translate(248.000000, 41.000000)">
                    <path d="M18.5,35.25 L14.75,35.25 C10.6075,35.25 7.25,31.8925 7.25,27.75 L7.25,19.75 C7.25,15.6075 10.6075,12.25 14.75,12.25 L47.25,12.25 C51.39,12.25 54.75,15.6075 54.75,19.75 L54.75,27.75 C54.75,31.8925 51.39,35.25 47.25,35.25 L43.5,35.25" id="Shape" stroke="#000000" stroke-width="2" fill-opacity="0.400000006" fill="#8984FA" stroke-linejoin="round"></path>
                    <path d="M27.25,28 C27.25,25.9525 28.95,24.25 31,24.25 C33.07,24.25 34.75,25.93 34.75,28 L34.75,43 L46,46.75 C48.47,47.545 49.0825,50.4675 48.5,53 L46,66.75 L26,66.75 L16,51.75 C14.865,50.0175 14.75,46.75 17.25,46.75 C19.75,46.75 22.25,47.7975 27.25,55.5 L27.25,28 Z" id="Shape" stroke="#000000" stroke-width="2" fill="#F2F2F2" stroke-linejoin="round"></path>
                    <path d="M18.5,35.25 L14.75,35.25 C10.6075,35.25 7.25,31.8925 7.25,27.75 L7.25,19.75 C7.25,15.6075 10.6075,12.25 14.75,12.25 L47.25,12.25 C51.39,12.25 54.75,15.6075 54.75,19.75 L54.75,27.75 C54.75,31.8925 51.39,35.25 47.25,35.25 L43.5,35.25" id="Shape" stroke="#000000" stroke-width="2" stroke-linejoin="round"></path>
                    <path d="M14.5,17.5 L36.5,17.5" id="Line-2" stroke="#FFFFFF" stroke-width="3"></path>
                    <path d="M41.5,17.5 L41.5,17.5" id="Line-2-Copy" stroke="#FFFFFF" stroke-width="3"></path>
                    <path d="M57,10.5011722 L61.5703652,8" id="Path-5" stroke="#2E2E36" stroke-width="2"></path>
                    <path d="M0,10.5011722 L4.5703652,8" id="Path-5-Copy" stroke="#2E2E36" stroke-width="2" transform="translate(2.285183, 9.250586) scale(-1, 1) translate(-2.285183, -9.250586) "></path>
                    <path d="M30,4.99923848 L30.087262,0" id="Path-4" stroke="#2E2E36" stroke-width="2"></path>
                </g>
            </g>
        </g>
    </g>
</svg>