<?xml version="1.0" encoding="UTF-8"?>
<svg width="74px" height="68px" viewBox="0 0 74 68" version="1.1" xmlns="http://www.w3.org/2000/svg" xmlns:xlink="http://www.w3.org/1999/xlink">
    <!-- Generator: Sketch 46.2 (44496) - http://www.bohemiancoding.com/sketch -->
    <title>pen-tablet copy</title>
    <desc>Created with Sketch.</desc>
    <defs></defs>
    <g id="Page-1" stroke="none" stroke-width="1" fill="none" fill-rule="evenodd" stroke-linecap="round">
        <g id="Desktop" transform="translate(-448.000000, -1366.000000)">
            <g id="Group-5-Copy-3" transform="translate(206.000000, 1326.000000)">
                <g id="pen-tablet-copy" transform="translate(243.000000, 41.000000)">
                    <path d="M43.8554167,52 L5.77083333,52 C2.778125,52 0.354166667,49.5563636 0.354166667,46.5454545 L0.354166667,13.8181818 C0.354166667,10.8072727 2.778125,8.36363636 5.77083333,8.36363636 L57.2291667,8.36363636 C60.2191667,8.36363636 62.6458333,10.8072727 62.6458333,13.8181818 L62.6458333,46.5454545 C62.6458333,49.5563636 60.2191667,52 57.2291667,52 L54.68875,52" id="Shape" stroke="#2E2E36" stroke-width="2" fill="#F2F2F2" stroke-linejoin="round"></path>
                    <polyline id="Shape" stroke="#9999A7" stroke-width="2" fill="#FFFFFF" stroke-linejoin="round" points="38.43875 46.5454545 19.3125 46.5454545 19.3125 13.8181818 57.2291667 13.8181818 57.2291667 46.5454545 49.2720833 46.5454545"></polyline>
                    <path d="M27,22 C29,25 35.6875,15 38.34375,20 C41,25 31,30 34,36 C37,42 43,26.2874218 47,29.2874218 C51,32.2874218 43,36 48,40" id="Path-6" stroke="#FF1A55" stroke-width="3"></path>
                    <path d="M28.9595833,37 L26.25125,28.8181818 L34.37625,31.5454545 L61.4595833,58.8181818 C62.9545833,60.3263636 62.9545833,62.77 61.4595833,64.2727273 C59.9645833,65.7809091 57.5379167,65.7809091 56.0429167,64.2727273 L28.9595833,37 Z" id="Shape" stroke="#2E2E36" stroke-width="2" fill="#F2F2F2" stroke-linejoin="round"></path>
                    <g id="Group" transform="translate(5.000000, 13.000000)" stroke="#9999A7" stroke-width="2" fill="#FFFFFF" stroke-linejoin="round">
                        <rect id="Rectangle-path" x="0.770833333" y="0.818181818" width="8.125" height="8.18181818"></rect>
                        <rect id="Rectangle-path" x="0.770833333" y="9" width="8.125" height="8.18181818"></rect>
                        <rect id="Rectangle-path" x="0.770833333" y="17.1818182" width="8.125" height="8.18181818"></rect>
                        <rect id="Rectangle-path" x="0.770833333" y="25.3636364" width="8.125" height="8.18181818"></rect>
                    </g>
                    <path d="M34.37625,31.5454545 L28.9595833,37" id="Shape" stroke="#2E2E36" stroke-width="2" stroke-linejoin="round"></path>
                    <path d="M67.3404431,10.4890566 L71.6754252,7.59906852" id="Path-5" stroke="#2E2E36" stroke-width="2" transform="translate(69.507934, 9.044063) rotate(18.000000) translate(-69.507934, -9.044063) "></path>
                    <path d="M63,4.09576022 L65.8678822,0" id="Path-4" stroke="#2E2E36" stroke-width="2"></path>
                </g>
            </g>
        </g>
    </g>
</svg>