<?xml version="1.0" encoding="UTF-8"?>
<svg width="71px" height="61px" viewBox="0 0 71 61" version="1.1" xmlns="http://www.w3.org/2000/svg" xmlns:xlink="http://www.w3.org/1999/xlink">
    <!-- Generator: Sketch 46.2 (44496) - http://www.bohemiancoding.com/sketch -->
    <title>Group 3 Copy 3</title>
    <desc>Created with Sketch.</desc>
    <defs></defs>
    <g id="Page-1" stroke="none" stroke-width="1" fill="none" fill-rule="evenodd">
        <g id="Desktop" transform="translate(-450.000000, -1040.000000)">
            <g id="Group-4-Copy" transform="translate(206.000000, 996.000000)">
                <g id="Group-3-Copy-3" transform="translate(245.000000, 45.000000)">
                    <path d="M0,16 L60,16 L60,14 L60,14 C60,10.6862915 57.3137085,8 54,8 L6,8 L6,8 C2.6862915,8 -4.05812251e-16,10.6862915 0,14 L0,16 Z" id="Path-3" fill="#F2F2F2"></path>
                    <path d="M45.5765873,53.5677656 L5.49603175,53.5677656 C2.64583333,53.5677656 0.337301587,51.0353646 0.337301587,47.9150849 L0.337301587,13.999001 C0.337301587,10.8787213 2.64583333,8.34632035 5.49603175,8.34632035 L54.5039683,8.34632035 C57.3515873,8.34632035 59.6626984,10.8787213 59.6626984,13.999001 L59.6626984,47.9150849 C59.6626984,51.0353646 57.3515873,53.5677656 54.5039683,53.5677656 L51.1321429,53.5677656" id="Shape" stroke="#2E2E36" stroke-width="2" stroke-linecap="round" stroke-linejoin="round"></path>
                    <rect id="Rectangle-4" fill="#FF1A55" x="44" y="21" width="10" height="3" rx="1.5"></rect>
                    <rect id="Rectangle-4-Copy-2" fill="#F2F2F2" x="18" y="21" width="10" height="3" rx="1.5"></rect>
                    <rect id="Rectangle-4-Copy-4" fill="#F2F2F2" x="31" y="21" width="10" height="3" rx="1.5"></rect>
                    <rect id="Rectangle-4-Copy-3" fill="#F2F2F2" x="5" y="21" width="10" height="3" rx="1.5"></rect>
                    <rect id="Rectangle-4-Copy" fill="#F2F2F2" x="5" y="27" width="25" height="16" rx="2"></rect>
                    <rect id="Rectangle-4-Copy-5" fill="#F2F2F2" x="5" y="45" width="25" height="4" rx="2"></rect>
                    <rect id="Rectangle-4-Copy-6" fill-opacity="0.4" fill="#8984FA" x="7" y="37" width="9" height="3" rx="1.5"></rect>
                    <rect id="Rectangle-4-Copy-7" fill="#FFFFFF" x="18" y="37" width="9" height="3" rx="1.5"></rect>
                    <circle id="Oval-3" fill="#FF1A55" cx="6.5" cy="12.5" r="1.5"></circle>
                    <circle id="Oval-3-Copy" fill="#9999A7" cx="10.5" cy="12.5" r="1.5"></circle>
                    <circle id="Oval-3-Copy-2" fill="#9999A7" cx="14.5" cy="12.5" r="1.5"></circle>
                    <polygon id="Shape" stroke="#2E2E36" stroke-width="2" fill="#F2F2F2" stroke-linejoin="round" transform="translate(43.003221, 46.241316) rotate(10.000000) translate(-43.003221, -46.241316) " points="45.5475873 46.241316 50.0002288 41.7886745 32.1896629 35.4277581 38.5505793 53.238324 43.0032207 48.7856825 51.2724121 57.0548739 53.8167786 54.5105073"></polygon>
                    <path d="M0.952380952,16.6190476 L59.047619,16.6190476" id="Path-2" stroke="#2E2E36" stroke-width="2"></path>
                    <path d="M63.8692396,11.7155767 L68.2042217,8.82558861" id="Path-5" stroke="#2E2E36" stroke-width="2" stroke-linecap="round" transform="translate(66.036731, 10.270583) rotate(18.000000) translate(-66.036731, -10.270583) "></path>
                    <path d="M60.368459,4.95785247 L63.2363412,0.862092246" id="Path-4" stroke="#2E2E36" stroke-width="2" stroke-linecap="round"></path>
                </g>
            </g>
        </g>
    </g>
</svg>