<?xml version="1.0" encoding="utf-8"?>
<!-- Generator: Adobe Illustrator 19.2.1, SVG Export Plug-In . SVG Version: 6.00 Build 0)  -->
<svg version="1.1" xmlns="http://www.w3.org/2000/svg" xmlns:xlink="http://www.w3.org/1999/xlink" x="0px" y="0px" width="24px"
	 height="24px" viewBox="0 0 24 24" enable-background="new 0 0 24 24" xml:space="preserve">
<g id="Outline_Icons_1_">
	<g id="Outline_Icons">
		<g>
			<path d="M22.95,14.312l-2.99-6.977c-0.025-0.059-0.061-0.112-0.106-0.157l-1.424-1.424l-1.462-3.837
				c-0.025-0.065-0.064-0.125-0.114-0.175c-0.9-0.901-2.807-0.901-3.707,0C13.053,1.835,13,1.962,13,2.095v3.937
				c0,0.276,0.224,0.5,0.5,0.5s0.5-0.224,0.5-0.5V2.325c0.546-0.39,1.57-0.364,2.075,0.058l1.458,3.828
				c0.025,0.065,0.064,0.125,0.114,0.175l1.432,1.432l2.109,4.92c-0.796-0.448-1.711-0.706-2.687-0.706
				c-1.86,0-3.504,0.93-4.5,2.348V8.824c0.92,0.295,1.5,0.767,1.5,1.208c0,0.276,0.224,0.5,0.5,0.5s0.5-0.224,0.5-0.5
				c0-1.425-1.935-2.5-4.5-2.5s-4.5,1.075-4.5,2.5c0,0.276,0.224,0.5,0.5,0.5c0.276,0,0.5-0.224,0.5-0.5
				c0-0.44,0.58-0.913,1.5-1.208v5.555c-0.996-1.418-2.64-2.348-4.5-2.348c-0.976,0-1.892,0.258-2.687,0.706l2.109-4.92l1.432-1.432
				c0.05-0.05,0.089-0.111,0.115-0.178l1.458-3.889C8.431,1.898,9.454,1.873,10,2.262v3.77c0,0.276,0.224,0.5,0.5,0.5
				s0.5-0.224,0.5-0.5v-4c0-0.132-0.053-0.26-0.146-0.353c-0.9-0.901-2.807-0.901-3.707,0c-0.051,0.05-0.09,0.111-0.115,0.178
				L5.57,5.755L4.147,7.178C4.102,7.223,4.065,7.276,4.041,7.335l-2.99,6.977C0.393,15.218,0,16.329,0,17.532
				c0,3.033,2.467,5.5,5.5,5.5s5.5-2.467,5.5-5.5V8.608c0.316-0.044,0.646-0.076,1-0.076s0.684,0.032,1,0.076v8.924
				c0,3.033,2.467,5.5,5.5,5.5s5.5-2.467,5.5-5.5C24,16.329,23.607,15.218,22.95,14.312z M5.5,22.032c-2.481,0-4.5-2.018-4.5-4.5
				c0-2.481,2.019-4.5,4.5-4.5s4.5,2.019,4.5,4.5C10,20.013,7.981,22.032,5.5,22.032z M18.5,22.032c-2.481,0-4.5-2.018-4.5-4.5
				c0-2.481,2.019-4.5,4.5-4.5s4.5,2.019,4.5,4.5C23,20.013,20.981,22.032,18.5,22.032z"/>
			<path d="M5.5,14.032c-1.93,0-3.5,1.57-3.5,3.5c0,0.276,0.224,0.5,0.5,0.5s0.5-0.224,0.5-0.5c0-1.378,1.122-2.5,2.5-2.5
				c0.276,0,0.5-0.224,0.5-0.5C6,14.255,5.776,14.032,5.5,14.032z"/>
			<path d="M18.5,14.032c-1.93,0-3.5,1.57-3.5,3.5c0,0.276,0.224,0.5,0.5,0.5s0.5-0.224,0.5-0.5c0-1.378,1.122-2.5,2.5-2.5
				c0.276,0,0.5-0.224,0.5-0.5C19,14.255,18.776,14.032,18.5,14.032z"/>
		</g>
	</g>
	<g id="New_icons_1_">
	</g>
</g>
<g id="Invisible_Shape">
	<rect fill="none" width="24" height="24"/>
</g>
</svg>
