<?xml version="1.0" encoding="utf-8"?>
<!-- Generator: Adobe Illustrator 16.0.3, SVG Export Plug-In . SVG Version: 6.00 Build 0)  -->
<!DOCTYPE svg PUBLIC "-//W3C//DTD SVG 1.1//EN" "http://www.w3.org/Graphics/SVG/1.1/DTD/svg11.dtd">
<svg version="1.1" xmlns="http://www.w3.org/2000/svg" xmlns:xlink="http://www.w3.org/1999/xlink" x="0px" y="0px" width="24px"
	 height="24px" viewBox="0 0 24 24" enable-background="new 0 0 24 24" xml:space="preserve">
<g id="Outline_Icons_1_">
	<g id="Outline_Icons">
		<path d="M23.309,1.038l-23,9.5C0.12,10.616-0.002,10.801,0,11.006c0.002,0.204,0.128,0.386,0.319,0.46L9,14.842V22.5
			c0,0.509,0.675,0.691,0.932,0.252l3.288-5.636l6.04,3.321c0.286,0.159,0.658,0.001,0.729-0.332l4-18.5
			C24.072,1.188,23.647,0.896,23.309,1.038z M21.127,3.021L9.389,13.92l-7.545-2.935L21.127,3.021z M10,20.65v-5.305l2.343,1.288
			L10,20.65z M19.153,19.239l-8.806-4.844L22.675,2.948L19.153,19.239z"/>
	</g>
	<g id="New_icons_1_">
	</g>
</g>
<g id="Invisible_Shape">
	<rect fill="none" width="24" height="24"/>
</g>
</svg>
