<?xml version="1.0" encoding="utf-8"?>
<!-- Generator: Adobe Illustrator 16.0.3, SVG Export Plug-In . SVG Version: 6.00 Build 0)  -->
<!DOCTYPE svg PUBLIC "-//W3C//DTD SVG 1.1//EN" "http://www.w3.org/Graphics/SVG/1.1/DTD/svg11.dtd">
<svg version="1.1" xmlns="http://www.w3.org/2000/svg" xmlns:xlink="http://www.w3.org/1999/xlink" x="0px" y="0px" width="24px"
	 height="24px" viewBox="0 0 24 24" enable-background="new 0 0 24 24" xml:space="preserve">
<g id="Outline_Icons_1_">
	<g id="Outline_Icons">
		<path d="M20.478,18.049c-0.234-3.373-3.046-6.048-6.478-6.048h-2V5.95c1.416-0.239,2.5-1.466,2.5-2.949c0-1.654-1.346-3-3-3
			s-3,1.346-3,3c0,1.483,1.084,2.71,2.5,2.949v6.051H8.5c-3.335,0-5.787,2.519-5.981,6.049C1.094,18.281,0,19.512,0,21.001
			c0,1.654,1.346,3,3,3s3-1.346,3-3c0-1.471-1.064-2.691-2.463-2.945c0.19-2.949,2.206-5.055,4.963-5.055H11v5.051
			c-1.416,0.239-2.5,1.466-2.5,2.949c0,1.654,1.346,3,3,3s3-1.346,3-3c0-1.483-1.084-2.71-2.5-2.949v-5.051h2
			c2.881,0,5.248,2.229,5.478,5.053C18.072,18.303,17,19.525,17,21.001c0,1.654,1.346,3,3,3s3-1.346,3-3
			C23,19.51,21.904,18.279,20.478,18.049z M9.5,3.001c0-1.103,0.897-2,2-2s2,0.897,2,2s-0.897,2-2,2S9.5,4.104,9.5,3.001z M5,21.001
			c0,1.103-0.897,2-2,2s-2-0.897-2-2s0.897-2,2-2S5,19.898,5,21.001z M13.5,21.001c0,1.103-0.897,2-2,2s-2-0.897-2-2s0.897-2,2-2
			S13.5,19.898,13.5,21.001z M20,23.001c-1.103,0-2-0.897-2-2s0.897-2,2-2s2,0.897,2,2S21.103,23.001,20,23.001z"/>
	</g>
	<g id="New_icons_1_">
	</g>
</g>
<g id="Invisible_Shape">
	<rect fill="none" width="24" height="24"/>
</g>
</svg>
