<?xml version="1.0" encoding="utf-8"?>
<!-- Generator: Adobe Illustrator 16.0.3, SVG Export Plug-In . SVG Version: 6.00 Build 0)  -->
<!DOCTYPE svg PUBLIC "-//W3C//DTD SVG 1.1//EN" "http://www.w3.org/Graphics/SVG/1.1/DTD/svg11.dtd">
<svg version="1.1" xmlns="http://www.w3.org/2000/svg" xmlns:xlink="http://www.w3.org/1999/xlink" x="0px" y="0px" width="24px"
	 height="24px" viewBox="0 0 24 24" enable-background="new 0 0 24 24" xml:space="preserve">
<g id="Outline_Icons">
	<g>
		<path d="M23.879,0.174C23.784,0.063,23.646,0,23.5,0h-23C0.354,0,0.216,0.063,0.121,0.174s-0.137,0.257-0.115,0.4l3,20
			c0.027,0.183,0.153,0.336,0.328,0.397l8.5,3C11.888,23.99,11.943,24,12,24s0.112-0.01,0.166-0.028l8.5-3
			c0.175-0.062,0.301-0.214,0.328-0.397l3-20C24.016,0.431,23.974,0.284,23.879,0.174z M20.05,20.128L12,22.97l-8.05-2.841L1.081,1
			h21.838L20.05,20.128z"/>
		<path d="M7.5,11h8.424l-0.873,6.108L12,17.98l-3.059-0.875l-0.448-2.688c-0.046-0.272-0.309-0.459-0.575-0.411
			c-0.272,0.045-0.457,0.303-0.411,0.575l0.5,3c0.031,0.19,0.17,0.346,0.355,0.398l3.5,1C11.907,18.994,11.954,19,12,19
			s0.093-0.006,0.138-0.02l3.5-1c0.189-0.054,0.329-0.214,0.357-0.41l1-7c0.021-0.144-0.022-0.289-0.117-0.398
			C16.783,10.062,16.645,10,16.5,10H7.924L7.09,5H17.5C17.776,5,18,4.776,18,4.5S17.776,4,17.5,4h-11
			C6.353,4,6.214,4.064,6.118,4.177c-0.095,0.112-0.136,0.26-0.111,0.405l1,6C7.047,10.823,7.256,11,7.5,11z"/>
	</g>
</g>
<g id="Invisible_Shape">
	<rect fill="none" width="24" height="24"/>
</g>
</svg>
