<?xml version="1.0" encoding="utf-8"?>
<!-- Generator: Adobe Illustrator 16.0.3, SVG Export Plug-In . SVG Version: 6.00 Build 0)  -->
<!DOCTYPE svg PUBLIC "-//W3C//DTD SVG 1.1//EN" "http://www.w3.org/Graphics/SVG/1.1/DTD/svg11.dtd">
<svg version="1.1" xmlns="http://www.w3.org/2000/svg" xmlns:xlink="http://www.w3.org/1999/xlink" x="0px" y="0px" width="24px"
	 height="24px" viewBox="0 0 24 24" enable-background="new 0 0 24 24" xml:space="preserve">
<g id="Outline_Icons_1_">
	<g id="Outline_Icons">
		<path d="M22.5,7h-6.051C16.197,4.756,14.311,3,12,3S7.803,4.756,7.551,7H1.5C1.224,7,1,7.224,1,7.5v14C1,21.776,1.224,22,1.5,22
			h21c0.276,0,0.5-0.224,0.5-0.5v-14C23,7.224,22.776,7,22.5,7z M12,4c1.759,0,3.204,1.309,3.449,3H8.551C8.796,5.309,10.241,4,12,4
			z M22,8v4h-8v-0.5c0-0.276-0.224-0.5-0.5-0.5h-3c-0.276,0-0.5,0.224-0.5,0.5V12H2V8H22z M11,12h2v3h-2V12z M2,21v-8h8v2.5
			c0,0.276,0.224,0.5,0.5,0.5h3c0.276,0,0.5-0.224,0.5-0.5V13h8v8H2z"/>
	</g>
	<g id="New_icons_1_">
	</g>
</g>
<g id="Invisible_Shape">
	<rect fill="none" width="24" height="24"/>
</g>
</svg>
