<?xml version="1.0" encoding="utf-8"?>
<!-- Generator: Adobe Illustrator 16.0.3, SVG Export Plug-In . SVG Version: 6.00 Build 0)  -->
<!DOCTYPE svg PUBLIC "-//W3C//DTD SVG 1.1//EN" "http://www.w3.org/Graphics/SVG/1.1/DTD/svg11.dtd">
<svg version="1.1" xmlns="http://www.w3.org/2000/svg" xmlns:xlink="http://www.w3.org/1999/xlink" x="0px" y="0px" width="24px"
	 height="24px" viewBox="0 0 24 24" enable-background="new 0 0 24 24" xml:space="preserve">
<g id="Outline_Icons">
	<g>
		<path d="M23.854,11.646l-2.5-2.5c-0.195-0.195-0.512-0.195-0.707,0l-0.896,0.896L13.957,4.25l0.896-0.896
			c0.195-0.195,0.195-0.512,0-0.707l-2.5-2.5c-0.195-0.195-0.512-0.195-0.707,0l-2.5,2.5c-0.195,0.195-0.195,0.512,0,0.707
			l0.896,0.896L4.25,10.043L3.354,9.146c-0.195-0.195-0.512-0.195-0.707,0l-2.5,2.5c-0.195,0.195-0.195,0.512,0,0.707l2.5,2.5
			C2.744,14.951,2.872,15,3,15s0.256-0.049,0.354-0.146l2.5-2.5c0.195-0.195,0.195-0.512,0-0.707L4.957,10.75l5.793-5.793
			l0.896,0.897C11.744,5.951,11.872,6,12,6s0.256-0.049,0.354-0.146l0.896-0.897l5.793,5.793l-0.896,0.896
			c-0.195,0.195-0.195,0.512,0,0.707l2.5,2.5C20.744,14.951,20.872,15,21,15s0.256-0.049,0.354-0.146l2.5-2.5
			C24.049,12.159,24.049,11.842,23.854,11.646z M3,13.793L1.207,12L3,10.207L4.793,12L3,13.793z M12,4.793L10.207,3L12,1.207
			L13.793,3L12,4.793z M21,13.793L19.207,12L21,10.207L22.793,12L21,13.793z"/>
		<path d="M17,16.5c0-2.299-3.67-7.678-4.088-8.284c-0.006-0.01-0.019-0.013-0.026-0.022C12.794,8.079,12.659,8,12.5,8
			s-0.294,0.079-0.386,0.194c-0.007,0.009-0.02,0.012-0.026,0.022C11.67,8.822,8,14.201,8,16.5c0,1.421,0.675,2.675,1.707,3.5H9.5
			C9.224,20,9,20.224,9,20.5v3C9,23.776,9.224,24,9.5,24h6c0.276,0,0.5-0.224,0.5-0.5v-3c0-0.276-0.224-0.5-0.5-0.5h-0.207
			C16.325,19.175,17,17.921,17,16.5z M15,21v2h-5v-2H15z M9,16.5c0-1.317,1.727-4.33,3-6.334V15c0,0.276,0.224,0.5,0.5,0.5
			S13,15.276,13,15v-4.834c1.273,2.004,3,5.017,3,6.334c0,1.93-1.57,3.5-3.5,3.5S9,18.43,9,16.5z"/>
	</g>
</g>
<g id="Invisible_Shape">
	<rect x="0" fill="none" width="24" height="24"/>
</g>
</svg>
