<?xml version="1.0" encoding="UTF-8" standalone="no"?>
<svg width="46px" height="46px" viewBox="0 0 46 46" version="1.1" xmlns="http://www.w3.org/2000/svg" xmlns:xlink="http://www.w3.org/1999/xlink">
    <!-- Generator: Sketch 3.8.3 (29802) - http://www.bohemiancoding.com/sketch -->
    <title>Clip 2</title>
    <desc>Created with Sketch.</desc>
    <defs>
        <linearGradient x1="50%" y1="0%" x2="50%" y2="99.3642379%" id="linearGradient-1">
            <stop stop-color="#FFFFFF" offset="0%"></stop>
            <stop stop-color="#FFFFFF" offset="100%"></stop>
        </linearGradient>
        <path d="M21.3041693,0.702191773 L0.70237063,21.3043482 C-0.234123543,22.2408423 -0.234123543,23.7589788 0.70237063,24.6958307 C1.6388648,25.6323249 3.15735899,25.6323249 4.09385316,24.6958307 L24.6960095,4.09403202 C25.6325037,3.15718013 25.6325037,1.63868595 24.6960095,0.702191773 L24.6956518,0.702191773 C24.2274047,0.233944687 23.6135682,1.0658141e-14 23.0000894,1.0658141e-14 C22.3862529,1.0658141e-14 21.7727741,0.233944687 21.3041693,0.702191773 L21.3041693,0.702191773 Z M24.7718448,17.8366726 L4.16968844,38.438829 C3.23319427,39.3753232 3.23319427,40.8938174 4.16968844,41.8303116 C5.10618261,42.7668057 6.62467679,42.7668057 7.56117097,41.8303116 L28.1633274,21.2281552 C29.0998215,20.291661 29.0998215,18.7735245 28.1633274,17.8370304 L28.1629696,17.8366726 C27.6947226,17.3684256 27.080886,17.1341232 26.4674072,17.1341232 C25.8535707,17.1341232 25.2400919,17.3684256 24.7718448,17.8366726 L24.7718448,17.8366726 Z M41.905968,21.3039905 L21.3041693,41.9061468 C20.3676751,42.842641 20.3676751,44.3611352 21.3041693,45.2976294 C22.2410212,46.2341235 23.7591577,46.2341235 24.6956518,45.2976294 L45.2978082,24.6958307 C46.2343024,23.7589788 46.2343024,22.2408423 45.2978082,21.3043482 L45.2978082,21.3039905 C44.8295611,20.8357434 44.2157246,20.601441 43.6018881,20.601441 C42.9884093,20.601441 42.3745728,20.8357434 41.905968,21.3039905 L41.905968,21.3039905 Z" id="path-2"></path>
    </defs>
    <g id="Symbols" stroke="none" stroke-width="1" fill="none" fill-rule="evenodd">
        <g id="Headers-/-Header#7-Copy" transform="translate(-37.000000, -27.000000)">
            <g id="Header#7">
                <g id="EM-Logo" transform="translate(37.000000, 27.000000)">
                    <g id="Logo">
                        <mask id="mask-3" fill="white">
                            <use xlink:href="#path-2"></use>
                        </mask>
                        <use id="Clip-2" fill="url(#linearGradient-1)" xlink:href="#path-2"></use>
                    </g>
                </g>
            </g>
        </g>
    </g>
</svg>