<svg id="Layer_3" data-name="Layer 3" xmlns="http://www.w3.org/2000/svg" viewBox="0 0 231.44 189.39"><defs><style>.cls-1{fill:#5952F9;}.cls-2,.cls-4{fill:#fff;}.cls-2,.cls-4,.cls-6{stroke:#5952F9;stroke-miterlimit:10;}.cls-2{stroke-width:11px;}.cls-3{fill:#f2f2f2;}.cls-4,.cls-6{stroke-width:3px;}.cls-5{fill:#e6e6e6;}.cls-6{fill:none;}</style></defs><title>icon-illustration</title><rect class="cls-1" x="7.5" y="7.65" width="216" height="144" rx="11" ry="11"/><path class="cls-1" d="M1245.88,445.67H1068.25c-5.27,0-11,.67-16.26,0-5.67-.73-3.61-11.7-3.61-15.68V343.89c0-7.64-1-16,0-23.55,0.65-5.16,7.86-3.67,11.67-3.67h31c51,0,102.11-.59,153.14,0,5.92,0.07,5.19,4.79,5.19,9.41V439.56c0,2.67.17,5.88-3.5,6.11-9.59.6-9.66,15.6,0,15,10.58-.66,18.14-8.23,18.5-18.88,0.1-2.94,0-5.9,0-8.84V392.06c0-23.87,1-48,0-71.82a18.92,18.92,0,0,0-18.59-18.57c-1.71-.07-3.43,0-5.13,0H1116.45c-21.16,0-42.36-.34-63.52,0-7.07.11-13.68,3.15-17.23,9.54-2.22,4-2.31,8.22-2.31,12.59V439.87c0,12.14,7.84,20.71,20.19,20.8,7.9,0.06,15.81,0,23.72,0h168.59C1255.53,460.67,1255.55,445.67,1245.88,445.67Z" transform="translate(-1033.38 -301.52)"/><path class="cls-2" d="M1174.5,393.95l-20.42-8.41a1,1,0,0,0-1.29,1.33l8.87,19.92,76,76a9.08,9.08,0,0,0,12.84,0h0a9.08,9.08,0,0,0,0-12.84Z" transform="translate(-1033.38 -301.52)"/><rect class="cls-3" x="7.5" y="7.65" width="216" height="144" rx="12" ry="12"/><rect class="cls-4" x="25.5" y="25.65" width="27" height="108" rx="2" ry="2"/><line class="cls-4" x1="52.5" y1="52.55" x2="25.5" y2="52.55"/><line class="cls-4" x1="52.5" y1="80.55" x2="25.5" y2="80.55"/><line class="cls-4" x1="52.5" y1="107.55" x2="25.5" y2="107.55"/><rect class="cls-4" x="70.5" y="25.65" width="135" height="108" rx="2" ry="2"/><path class="cls-5" d="M1166.88,385.67h0a4.5,4.5,0,0,1,4.5-4.5h9a4.5,4.5,0,0,0,4.5-4.5h0a4.5,4.5,0,0,0-4.5-4.5h0a4.5,4.5,0,0,1-4.5-4.5h0a4.5,4.5,0,0,1,4.5-4.5h0a4.5,4.5,0,0,0,4.5-4.5h0a4.5,4.5,0,0,0-4.5-4.5h-27a4.5,4.5,0,0,1-4.5-4.5h0a4.5,4.5,0,0,0-4.5-4.5h-18a4.5,4.5,0,0,0-4.5,4.5h0a4.5,4.5,0,0,1-4.5,4.5h0a4.5,4.5,0,0,0-4.5,4.5h0a4.5,4.5,0,0,0,4.5,4.5h36a4.5,4.5,0,0,1,4.5,4.5h0a4.5,4.5,0,0,1-4.5,4.5h-18a4.5,4.5,0,0,0-4.5,4.5h0a4.5,4.5,0,0,0,4.5,4.5h0a4.5,4.5,0,0,1,4.5,4.5h0a4.5,4.5,0,0,1-4.5,4.5h-9a4.5,4.5,0,0,0-4.5,4.5h0a4.5,4.5,0,0,0,4.5,4.5h90a4.5,4.5,0,0,0,4.5-4.5h0a4.5,4.5,0,0,0-4.5-4.5h-45A4.5,4.5,0,0,1,1166.88,385.67Z" transform="translate(-1033.38 -301.52)"/><rect class="cls-5" x="160.5" y="70.65" width="18" height="9" rx="4.5" ry="4.5"/><rect class="cls-5" x="97.5" y="106.65" width="18" height="9" rx="4.5" ry="4.5"/><rect class="cls-5" x="115.5" y="34.65" width="18" height="9" rx="4.5" ry="4.5"/><path class="cls-4" d="M1174.5,393.95l-20.42-8.41a1,1,0,0,0-1.29,1.33l8.87,19.92,76,76a9.08,9.08,0,0,0,12.84,0h0a9.08,9.08,0,0,0,0-12.84Z" transform="translate(-1033.38 -301.52)"/><line class="cls-6" x1="128.28" y1="105.27" x2="140.88" y2="92.67"/></svg>