<svg id="Layer_2" data-name="Layer 2" xmlns="http://www.w3.org/2000/svg" viewBox="0 0 209.4 247.6"><defs><style>.cls-1{fill:#5952F9;}.cls-2,.cls-4{fill:#fff;}.cls-3,.cls-6{fill:#e6e6e6;}.cls-3,.cls-4{stroke:#5952F9;}.cls-3,.cls-4,.cls-5{stroke-miterlimit:10;stroke-width:3px;}.cls-5{fill:none;stroke:#000;}</style></defs><title>icon-ux</title><path class="cls-1" d="M378.78,318.46c0-16.87-6.66-29.49-17.53-35.24,5.14-9.37,2.76-14.87,2.76-14.87s-5.12,7.88-13.5,10.25c0,0-.36-9.13-5.74-14.63-0.39,8.63-3.39,12-3.39,12-4.16-8-32-26-72-3.37-26-1.25-53,18.38-46.57,47,18.93-12.91,36.57.14,36.84,21.65a15.78,15.78,0,0,0-13,15.53h0a15.79,15.79,0,0,0,15.52,15.79c3.71,13.54,17.21,27.38,33.18,30.31l-0.47,6.7h-1c-13,0-18.5,2.2-26.88,11.2-2.37-7.5-9.12-10.8-16.12-10.8V379s0-5.4-5-5.4h-53c-2.76,0-5,2.64-5,5.4v39c-5.25,0-9,5-9,10s3,9,8,9c-5,0-8.5,4-8.5,9a9.22,9.22,0,0,0,9.25,9,8.77,8.77,0,0,0-8.87,9c0.38,8.93,8.13,9.8,8.13,9.8s-1.25,8.8,6.17,8.8h15.37c3.21,8,13,17.2,25.46,17.33,15.77,0.16,25.54-4.88,30.69-13.48,5.28,8.57,14.5,13.16,25.31,13.16h49c16.57,0,29-13,29-29.6V440c0-16.57-13.43-30.4-30-30.4h-16v-6.48c17.25-3.2,30.88-15.61,34.49-30.87,9.17-.17,15.59-6.5,15.59-15.29,0-3.35-.26-7.05-2.62-9.81A51,51,0,0,0,378.78,318.46Z" transform="translate(-173.88 -257.14)"/><path class="cls-1" d="M383.28,318.46c-0.2-15.45-5.6-31.24-19.76-39.13l1.61,6.16c2.66-5.16,5.56-12.47,3.22-18.33-1.44-3.61-6-4.48-8.22-1.07a21.27,21.27,0,0,1-10.81,8.18l5.7,4.34a29,29,0,0,0-7.06-17.81c-2.78-3.13-7.44-.43-7.68,3.18a22.81,22.81,0,0,1-1.45,7.44c-0.29.68-1.83,2.83-.62,1.38l7.07,0.91c-3.17-5.73-9.64-9.56-15.45-12.07a59.5,59.5,0,0,0-31.59-3.88,80.09,80.09,0,0,0-20.42,5.72c-3.06,1.29-6.51,3.85-9.72,4.58-3,.68-6.55.23-9.62,0.7-11.34,1.74-22.51,7.07-30.34,15.57-9.27,10.08-12.39,23.17-9.65,36.46a4.53,4.53,0,0,0,6.61,2.69c6.29-4.1,14.07-6.51,20.87-2.08,6.58,4.29,9,12.39,9.19,19.84l3.3-4.34a20.53,20.53,0,0,0-16.25,21.22c0.72,10.76,9.54,18.33,20,18.94l-4.34-3.3a49.11,49.11,0,0,0,36.32,33.4l-3.3-4.34-0.47,6.66,4.5-4.5c-5.66,0-11.5.21-16.86,2.21-5.65,2.11-10.1,6-14.2,10.36l7.52,2c-3.32-9-11-13.77-20.46-14.05l4.5,4.5V382c0-3.48,0-6.9-2.61-9.65-4-4.32-12.14-2.82-17.49-2.82H195.89c-4.85,0-9.61.8-11.71,5.9-1.32,3.21-.79,7.25-0.79,10.65v32l4.5-4.5c-16.44,1.46-18.33,26.71-1,28v-9c-7.32.54-13,5.9-13,13.5s6.45,13,13.75,13.5v-9c-9,.66-15.24,8.34-12.84,17.39,1.33,5,5.61,9.6,10.89,10.45l-3.3-4.34c-0.87,7,3.44,13.13,10.67,13.5,5.1,0.26,10.26,0,15.37,0l-3.89-2.23c10.7,24.71,50,25.89,63.92,3.74h-7.77c6.63,10.16,17.19,15.26,29.19,15.49,4.18,0.08,8.38,0,12.56,0,12.14,0,24.3.24,36.44,0,20.37-.41,33.44-16.92,33.5-36.45,0-7,0-14.1,0-21.14s0-14.09-3-20.85a34.63,34.63,0,0,0-26.26-20.12c-6.94-1.05-14.27-.43-21.27-0.43l4.5,4.5v-6.89l-3.3,4.34c17.72-3.57,33.05-16.19,37.63-34l-4.34,3.3c7.16-.38,13.92-3.41,17.56-9.86s3.65-16-.7-22v4.54a55.62,55.62,0,0,0,10.05-30.93c0.12-5.79-8.88-5.79-9,0a47.19,47.19,0,0,1-8.82,26.38,4.36,4.36,0,0,0,0,4.54c5.65,7.86,0,17.85-9.08,18.33A4.62,4.62,0,0,0,352,371c-3.85,15-16.58,24.75-31.35,27.72a4.54,4.54,0,0,0-3.3,4.34V410a4.57,4.57,0,0,0,4.5,4.5c13.7,0,28.72-1.7,37.34,11.53,3.66,5.61,4.16,11.66,4.16,18.11v19.79c0,5.65.2,11.19-2,16.55a24.54,24.54,0,0,1-22.46,15c-10,.21-20,0-29.92,0-14.15,0-31.55,2.69-40.5-11a4.56,4.56,0,0,0-7.77,0c-5.25,8.34-14.88,10.87-24.24,11.13-10.48.29-19.91-5.1-24.14-14.87a4.41,4.41,0,0,0-3.89-2.23h-13c-3.42,0-4.54-.76-4.07-4.5a4.48,4.48,0,0,0-3.3-4.34c-5.44-.87-6.93-9.68-0.45-10.16a4.5,4.5,0,0,0,0-9c-5.42-.4-6.59-8.57-0.75-9a4.5,4.5,0,0,0,0-9c-5.56-.42-3.93-9.56,1-10a4.6,4.6,0,0,0,4.5-4.5v-36.8c0-2.28-.21-2.51,2-2.7,10.64-.91,21.76,0,32.44,0H243.7c3.41,0,2.68.15,2.68,3.47v28a4.58,4.58,0,0,0,4.5,4.5c5.19,0.16,9.9,2.31,11.79,7.45,1.11,3,5,4.62,7.52,2,3.26-3.44,6.7-6.82,11.27-8.42,4.3-1.51,8.93-1.51,13.42-1.51a4.6,4.6,0,0,0,4.5-4.5l0.47-6.66a4.51,4.51,0,0,0-3.3-4.34c-13.87-2.85-26-13.44-30-27.12a4.64,4.64,0,0,0-4.34-3.3c-13.72-.8-14.34-19.59-1.33-22.48a4.54,4.54,0,0,0,3.3-4.34c-0.33-10.66-4.24-21.69-13.65-27.61s-21-3.79-30,2.08l6.61,2.69c-2.75-13.31,2.79-25.87,14-33.46A46.54,46.54,0,0,1,257.65,278a56.62,56.62,0,0,1,10.43-.94c3.92-.1,6.89-2.46,10.4-4.1,12.56-5.86,27.08-8.82,40.74-5.44,6.37,1.58,15.15,5.09,18.27,10.73,1.31,2.37,5.21,3.13,7.07.91,3.5-4.18,4.35-9.93,4.7-15.19l-7.68,3.18A19,19,0,0,1,346,278.6c0.14,2.78,2.78,5.29,5.7,4.34a31.15,31.15,0,0,0,16.19-12.32l-8.22-1.07c1.45,3.65-.7,8.27-2.31,11.4a4.58,4.58,0,0,0,1.61,6.16c11.37,6.33,15.15,19,15.31,31.36C374.35,324.25,383.35,324.27,383.28,318.46Z" transform="translate(-173.88 -257.14)"/><rect class="cls-2" x="121.83" y="142.75" width="26.42" height="11.83"/><path class="cls-1" d="M322.13,410.23H295.71l1.5,1.5V399.89l-1.5,1.5h26.42l-1.5-1.5v11.83a1.5,1.5,0,0,0,3,0V399.89a1.52,1.52,0,0,0-1.5-1.5H295.71a1.52,1.52,0,0,0-1.5,1.5v11.83a1.52,1.52,0,0,0,1.5,1.5h26.42A1.5,1.5,0,0,0,322.13,410.23Z" transform="translate(-173.88 -257.14)"/><rect class="cls-3" x="86" y="152.83" width="108" height="90" rx="30" ry="30"/><rect class="cls-4" x="72.76" y="83.83" width="125.48" height="31.58" rx="15.79" ry="15.79"/><path class="cls-4" d="M126.42,47.83H185a0,0,0,0,1,0,0v53.27a45.73,45.73,0,0,1-45.73,45.73h-7.55A45.73,45.73,0,0,1,86,101.11V88.25a40.42,40.42,0,0,1,40.42-40.42Z"/><polygon class="cls-2" points="106.17 239.8 104 234.23 106.17 228.45 110.1 225.29 104.7 220.43 104.41 213.12 110.1 206.83 106 202.67 104.39 196.94 107 191.14 113.33 188.69 137 188.84 137 175.5 142.19 162.83 149.5 160.06 155.19 164.09 152.99 178.97 155.83 187.33 164 188.83 167.5 192.94 170.95 201.95 172.19 219 168 233.83 160.51 242.63 144.83 243.43 116 243.43 106.17 239.8"/><path class="cls-2" d="M250.88,429v17a9,9,0,0,1-9,9h0a9,9,0,0,1-9-9V428a18,18,0,0,1,18-18h0a18,18,0,0,1,18,18v40.5a31.5,31.5,0,0,1-31.5,31.5h0c-13,0-24.14-6.78-29-18" transform="translate(-173.88 -257.14)"/><path class="cls-1" d="M249.38,429c0,5.11.12,10.24,0,15.36-0.1,4.53-2.15,9.14-7.5,9.14-5.16,0-7.4-4.51-7.5-9-0.12-5.33-.18-10.74,0-16.06,0.33-9.63,7.77-17.69,17.84-16.87,9.33,0.76,15.07,8.67,15.16,17.55,0.05,5.23,0,10.46,0,15.68,0,10.62,1.87,23.84-1.82,34-8.91,24.64-45,26.22-55.85,2.43-0.8-1.75-3.39-.23-2.59,1.51,9.94,21.71,40.82,25,55.78,6.65,10.33-12.65,7.48-30.87,7.48-46.09,0-5.88.61-12.13-.2-18a19.66,19.66,0,0,0-20-16.82c-10.59.38-18.5,9.1-18.83,19.48-0.18,5.91-.33,12,0,17.93,0.58,10.57,15,14.85,20,4.62,1.49-3.1,1-6.83,1-10.16V429a1.5,1.5,0,0,0-3,0h0Z" transform="translate(-173.88 -257.14)"/><path class="cls-3" d="M247.59,410a12.87,12.87,0,0,1,3.29-.61V379a5,5,0,0,0-5-5h-53a5,5,0,0,0-5,5v98a5,5,0,0,0,5,5h53a5,5,0,0,0,5-5V447a11.49,11.49,0,0,1-4.68,5.71,13.54,13.54,0,0,1-3.28,1.8,2.58,2.58,0,0,1-1,.18,2.25,2.25,0,0,1-3.09-1.22,6.49,6.49,0,0,1-1.18-.55,2.56,2.56,0,0,1-.29-0.19,6.4,6.4,0,0,1-1.86-2,5.55,5.55,0,0,1-1.8-5.32,32.74,32.74,0,0,1-.55-15.85c0.13-5.84,1.51-11.27,6.63-14.82a2.83,2.83,0,0,1,.23-0.33C241.9,412.35,244.83,409.81,247.59,410Z" transform="translate(-173.88 -257.14)"/><path class="cls-4" d="M241.88,455v17a1,1,0,0,1-1,1h-43a1,1,0,0,1-1-1V384a1,1,0,0,1,1-1h43a1,1,0,0,1,1,1v28.41" transform="translate(-173.88 -257.14)"/><rect class="cls-4" x="5" y="161.83" width="36" height="18" rx="9" ry="9"/><rect class="cls-4" x="5" y="179.83" width="36" height="18" rx="9" ry="9"/><rect class="cls-4" x="5" y="197.83" width="36" height="18" rx="9" ry="9"/><path class="cls-1" d="M249.38,429c0,5.2.18,10.44,0,15.64-0.15,4.46-2.19,8.86-7.5,8.86-5.51,0-7.5-5-7.5-9.63,0-5.26-.2-10.55,0-15.81,0.42-10.92,10.52-19,21.3-15.86,15.07,4.44,11.7,23.55,11.7,35.54,0,11.27,1.91,25.19-3.42,35.54-5.44,10.57-16.56,15.57-28.13,15.19-12-.4-21.21-6.27-26.12-17.23-0.79-1.76-3.37-.23-2.59,1.51,4.54,10.13,12.86,16.75,23.94,18.31s22.67-1,30.48-9.23c11.51-12.1,8.83-30.28,8.83-45.57,0-6.07.19-12.18,0-18.25-0.32-10.39-8.23-19.11-18.83-19.49a19.66,19.66,0,0,0-20,16.82c-0.91,6.52-.52,13.84-0.2,20.4,0.52,10.32,14.16,15.13,19.65,5.37,1.81-3.23,1.35-7.15,1.35-10.71V429a1.5,1.5,0,0,0-3,0h0Z" transform="translate(-173.88 -257.14)"/><path class="cls-5" d="M316.07,452.48" transform="translate(-173.88 -257.14)"/><path class="cls-1" d="M334.25,447.33c6.35,0.29,8.41,8.2,9.35,13.28,1.45,7.84,1.66,16.91-.39,24.68-1.63,6.17-5.28,11.49-11.85,12.84-3.19.65-6.7,0.34-9.92,0.34H301.31c-4.3,0-8.61.1-12.91,0-3.05-.07-5.87-0.48-7.77-3.36-3.37-5.09.51-11.22,6.25-11.64a1.5,1.5,0,0,0,0-3,7.5,7.5,0,0,1,0-15,1.5,1.5,0,0,0,0-3c-7.39-.54-10.72-10.82-3.17-14.21,2.2-1,4.52-.79,6.87-0.79h13.8a1.5,1.5,0,0,0,0-3H293.23c-3.39,0-7.36-.5-10.54.89-10.58,4.64-6.52,19.32,4.19,20.11v-3c-13.52,1-13.53,20,0,21v-3c-12.33.9-14.31,18.87-1.53,20.88,6.54,1,13.74.12,20.35,0.12,8.08,0,16.53.77,24.57-.16,12.08-1.4,16.38-12.91,17.14-23.65,0.67-9.42.85-32.69-13.15-33.33-1.93-.09-1.93,2.91,0,3h0Z" transform="translate(-173.88 -257.14)"/><path class="cls-1" d="M304.38,447.48h7.32a1.52,1.52,0,0,0,1.45-1.9,31.74,31.74,0,0,1,1.52-19.83c1.67-4.23,5.52-9.21,10.67-6.38s1.75,8.38.57,12.44c-1,3.43-1.13,7.36.62,10.57,2.58,4.73,7.19,5.09,12,5.09h15.25a1.5,1.5,0,0,0,0-3c-5.82,0-11.68.2-17.5,0-5.5-.19-8.51-3.63-8-9.2,0.46-4.64,4-8.6,2.58-13.43-1.68-5.9-8.92-7.8-13.82-4.61-3.59,2.33-5.17,6.9-6.34,10.8a33.64,33.64,0,0,0-.45,18.35l1.45-1.9h-7.32a1.5,1.5,0,0,0,0,3h0Z" transform="translate(-173.88 -257.14)"/><path class="cls-2" d="M301.14,372a82.73,82.73,0,0,1-17.16-.48,25.33,25.33,0,1,0,49.79-9.09A81,81,0,0,1,301.14,372Z" transform="translate(-173.88 -257.14)"/><path class="cls-1" d="M301.14,370.51A92.62,92.62,0,0,1,284,370a1.52,1.52,0,0,0-1.45,1.9c2.44,14.63,16.1,25,30.92,22.53C328.91,391.94,338,377,335.21,362a1.52,1.52,0,0,0-2.2-.9,82.62,82.62,0,0,1-31.87,9.36c-1.91.17-1.93,3.17,0,3a86.51,86.51,0,0,0,33.38-9.77l-2.2-.9c2.54,13.55-6.15,26.94-20.16,28.77-13.19,1.73-24.6-7.65-26.73-20.48L284,373a92.62,92.62,0,0,0,17.16.48C303.06,373.38,303.07,370.38,301.14,370.51Z" transform="translate(-173.88 -257.14)"/><circle class="cls-1" cx="111.5" cy="91.87" r="4.5"/><path class="cls-1" d="M324.44,351.88a11.67,11.67,0,0,1,15.88,0c1.43,1.29,3.56-.83,2.12-2.12a14.74,14.74,0,0,0-20.12,0c-1.43,1.31.7,3.42,2.12,2.12h0Z" transform="translate(-173.88 -257.14)"/><path class="cls-6" d="M222.81,319.59c-6.43-28.61,20.57-48.24,46.57-47,40-22.62,67.84-4.62,72,3.38,0,0,3-3.37,3.39-12,5.38,5.5,5.74,14.63,5.74,14.63,8.38-2.37,13.5-10.25,13.5-10.25s2.38,5.5-2.76,14.87c10.88,5.76,16.53,19.37,16.53,36.24,0,22.76-18.9,37-18.9,37V341c0-7.87-8.5-19.5-17.5-18.25,0,15.25-34.5,21.5-56.62,6.63C250.35,306.22,237.32,308.73,222.81,319.59Z" transform="translate(-173.88 -257.14)"/><path class="cls-1" d="M224.25,319.19c-3-14.69,3-28.48,15.35-36.85a48.84,48.84,0,0,1,17.25-7.24,69.83,69.83,0,0,1,11.22-1.05c3.3-.17,5.88-2.29,8.89-3.69,13.3-6.22,28.58-9.33,43.06-5.74,7,1.73,16.34,5.38,20.06,12.11a1.51,1.51,0,0,0,2.36.3c2.94-3.51,3.53-8.7,3.82-13.07L343.7,265A22.34,22.34,0,0,1,349,278.6a1.52,1.52,0,0,0,1.9,1.45,27.82,27.82,0,0,0,14.4-10.94l-2.74-.36c1.74,4.37-.67,9.94-2.61,13.71a1.53,1.53,0,0,0,.54,2.05c14.94,8.39,18.59,30.54,14.27,45.85-2.64,9.37-9.55,19.42-16.63,24.82l2.26,1.3c0-7.47,1.36-15.91-1.8-22.89-3-6.68-9.41-13-17.2-12.36a1.54,1.54,0,0,0-1.5,1.5c-0.46,11.59-18.11,13.73-26.67,13.6a53,53,0,0,1-21.62-4.84c-6.88-3.23-12.95-8.11-19.58-11.83-8.9-5-19.09-9.9-29.56-9.57-7.69.24-14.34,3.72-20.4,8.21-1.53,1.14,0,3.74,1.51,2.59,7.39-5.47,15.3-8.89,24.64-7.42,15,2.35,26.52,12.34,39.39,19.36a55.46,55.46,0,0,0,37.11,5.45c8-1.67,17.81-6.17,18.19-15.55l-1.5,1.5c7.64-.6,14.05,7,15.64,13.91,1.3,5.72.36,12.48,0.36,18.34a1.51,1.51,0,0,0,2.26,1.3,51.83,51.83,0,0,0,18.67-29.27c3.47-16.13-.91-37.94-16.31-46.58l0.54,2.05c2.32-4.51,5-10.89,2.91-16a1.52,1.52,0,0,0-2.74-.36,24.58,24.58,0,0,1-12.6,9.56l1.9,1.45a25.63,25.63,0,0,0-6.18-15.69,1.52,1.52,0,0,0-2.56,1.06c-0.23,3.41-.87,8.47-2.95,10.95l2.36,0.3c-2.85-5.15-8.81-8.59-14-10.84A56.44,56.44,0,0,0,299,260.65,77.31,77.31,0,0,0,279,266.22c-3.42,1.44-7.2,4.26-10.87,4.84-2.87.45-5.91,0.15-8.83,0.59-10.87,1.64-21.51,6.65-29,14.8-8.52,9.25-11.4,21.33-8.88,33.55C221.75,321.88,224.64,321.08,224.25,319.19Z" transform="translate(-173.88 -257.14)"/><path class="cls-1" d="M261.38,347.35c-0.11-11-1.76-25.19-11.66-32.08-8.78-6.11-19.58-2.35-27.67,3-1.6,1.06-.1,3.66,1.51,2.59,7.13-4.73,16.84-8.64,24.64-3,8.84,6.36,10.08,19.58,10.17,29.49a1.5,1.5,0,0,0,3,0h0Z" transform="translate(-173.88 -257.14)"/><path class="cls-1" d="M310.44,289.92c-10.64-11.51-27-18.07-42.44-18.81-1.93-.09-1.92,2.91,0,3,14.63,0.71,30.21,7,40.31,17.94,1.31,1.42,3.43-.7,2.12-2.12h0Z" transform="translate(-173.88 -257.14)"/></svg>