<svg id="Layer_1" data-name="Layer 1" xmlns="http://www.w3.org/2000/svg" viewBox="0 0 252.24 226.44"><defs><style>.cls-1{fill:#5952F9;}.cls-1,.cls-4,.cls-5{stroke:#5952F9;stroke-miterlimit:10;}.cls-2{fill:#e6e6e6;}.cls-3,.cls-5{fill:#fff;}.cls-4{fill:none;}.cls-4,.cls-5{stroke-width:3px;}</style></defs><title>icon-brand</title><g id="Branding"><rect class="cls-1" x="5.24" y="171.86" width="74.76" height="45.27"/><path class="cls-1" d="M631.88,489.95H557.64a5,5,0,0,1-5-5V440.2a5,5,0,0,1,5-5h74.24a5,5,0,0,1,5,5v44.75A5,5,0,0,1,631.88,489.95Z" transform="translate(-552.14 -268.07)"/><path class="cls-1" d="M781.36,491.66l-6.94-12.74a4.5,4.5,0,0,0-4-2.35H654.88a5,5,0,0,1-5-5v-49h-67a5,5,0,0,1-5-5v-72a5,5,0,0,1,5-5h67v-67a5,5,0,0,1,5-5h135a5,5,0,0,1,5,5v67h1a8,8,0,0,1,8,8V461.83a4.5,4.5,0,0,1-.49,2l-14.07,27.67A4.5,4.5,0,0,1,781.36,491.66Z" transform="translate(-552.14 -268.07)"/><rect class="cls-2" x="102.74" y="5.5" width="135" height="36.5"/><rect class="cls-3" x="102.74" y="42" width="135" height="161.5"/><rect class="cls-4" x="102.74" y="5.5" width="135" height="198" rx="3" ry="3"/><rect class="cls-5" x="5.24" y="171.86" width="74.76" height="45.27" rx="3" ry="3"/><rect class="cls-3" x="30.74" y="77.67" width="144" height="71.83" rx="4.98" ry="4.98"/><polygon class="cls-2" points="30.74 79.5 102.74 113.18 173.2 80.23 171.91 78 35.74 77.5 30.74 79.5"/><rect class="cls-4" x="30.74" y="77.5" width="144" height="72" rx="5" ry="5"/><path class="cls-4" d="M582.88,347.57L653.6,381a3,3,0,0,0,2.56,0l70.72-33.4" transform="translate(-552.14 -268.07)"/><path class="cls-3" d="M771.7,463.19l12,23.09a1.86,1.86,0,0,0,3.32,0l11.11-23.07a2.86,2.86,0,0,0,.28-1.24v-113a2.86,2.86,0,0,0-2.86-2.86H774.24a2.86,2.86,0,0,0-2.86,2.86V461.87A2.86,2.86,0,0,0,771.7,463.19Z" transform="translate(-552.14 -268.07)"/><path class="cls-2" d="M784.08,486.2l-10.81-20.94a1.9,1.9,0,0,1,1.64-2.77l20.46-.53a1.9,1.9,0,0,1,1.78,2.67l-9.65,21.47A1.9,1.9,0,0,1,784.08,486.2Z" transform="translate(-552.14 -268.07)"/><path class="cls-4" d="M771.72,463.22L783.54,486a2,2,0,0,0,3.58-.05l11-22.78a3,3,0,0,0,.3-1.3V349.07a3,3,0,0,0-3-3h-21a3,3,0,0,0-3,3V461.84A3,3,0,0,0,771.72,463.22Z" transform="translate(-552.14 -268.07)"/><line class="cls-4" x1="246.74" y1="104.5" x2="219.74" y2="104.5"/><line class="cls-4" x1="219.74" y1="194.5" x2="246.24" y2="194.5"/><line class="cls-4" x1="102.74" y1="42" x2="237.74" y2="42"/></g><circle class="cls-2" cx="41.82" cy="194.42" r="9.42"/><circle class="cls-2" cx="153.99" cy="130.5" r="9.42"/><circle class="cls-2" cx="232.74" cy="122.75" r="6.66"/><circle class="cls-2" cx="121.07" cy="58.92" r="9.42"/><path class="cls-5" d="M785.38,489.95" transform="translate(-552.14 -268.07)"/></svg>